HIERARCHY
ROOT Hips
{
	OFFSET -3.958830 18.904000 13.208200
	CHANNELS 6 Xposition Yposition Zposition Zrotation Yrotation Xrotation 
	JOINT LHipJoint
	{
		OFFSET 0.000000 0.000000 0.000000
		CHANNELS 3 Zrotation Yrotation Xrotation
		JOINT LeftUpLeg
		{
			OFFSET 1.800000 -1.400000 0.085000
			CHANNELS 3 Zrotation Yrotation Xrotation
			JOINT LeftLeg
			{
				OFFSET 2.215000 -6.000000 0.000000
				CHANNELS 3 Zrotation Yrotation Xrotation
				JOINT LeftFoot
				{
					OFFSET 2.500000 -6.900000 0.000000
					CHANNELS 3 Zrotation Yrotation Xrotation
					JOINT LeftToeBase
					{
						OFFSET 0.200000 -0.500000 1.950000
						CHANNELS 3 Zrotation Yrotation Xrotation
						End Site
						{
							OFFSET 0.000000 0.000000 0.000000
						}
					}
				}
			}
		}
	}
	JOINT RHipJoint
	{
		OFFSET 0.000000 0.000000 0.000000
		CHANNELS 3 Zrotation Yrotation Xrotation
		JOINT RightUpLeg
		{
			OFFSET -1.800000 -1.400000 0.085000
			CHANNELS 3 Zrotation Yrotation Xrotation
			JOINT RightLeg
			{
				OFFSET -2.215000 -6.000000 0.000000
				CHANNELS 3 Zrotation Yrotation Xrotation
				JOINT RightFoot
				{
					OFFSET -2.500000 -6.900000 0.000000
					CHANNELS 3 Zrotation Yrotation Xrotation
					JOINT RightToeBase
					{
						OFFSET -0.200000 -0.500000 1.950000
						CHANNELS 3 Zrotation Yrotation Xrotation
						End Site
						{
							OFFSET 0.000000 0.000000 0.000000
						}
					}
				}
			}
		}
	}
	JOINT LowerBack
	{
		OFFSET 0.000000 0.000000 0.000000
		CHANNELS 3 Zrotation Yrotation Xrotation
		JOINT Spine
		{
			OFFSET -0.087000 1.940000 -0.288900
			CHANNELS 3 Zrotation Yrotation Xrotation
			JOINT Spine1
			{
				OFFSET 0.000000 1.950000 0.060000
				CHANNELS 3 Zrotation Yrotation Xrotation
				JOINT Neck
				{
					OFFSET 0.000000 0.000000 0.000000
					CHANNELS 3 Zrotation Yrotation Xrotation
					JOINT Neck1
					{
						OFFSET 0.000000 1.600000 0.340000
						CHANNELS 3 Zrotation Yrotation Xrotation
						JOINT Head
						{
							OFFSET 0.000000 1.667000 -0.240000
							CHANNELS 3 Zrotation Yrotation Xrotation
							End Site
							{
								OFFSET 0.000000 0.000000 0.000000
							}
						}
					}
				}
				JOINT LeftShoulder
				{
					OFFSET 0.000000 0.000000 0.000000
					CHANNELS 3 Zrotation Yrotation Xrotation
					JOINT LeftArm
					{
						OFFSET 2.700000 1.550000 -0.730000
						CHANNELS 3 Zrotation Yrotation Xrotation
						JOINT LeftForeArm
						{
							OFFSET 5.450000 0.000000 0.000000
							CHANNELS 3 Zrotation Yrotation Xrotation
							JOINT LeftHand
							{
								OFFSET 3.450000 0.000000 0.000000
								CHANNELS 3 Zrotation Yrotation Xrotation
								JOINT LeftHandIndex1
								{
									OFFSET 0.750000 0.000000 0.000000
									CHANNELS 3 Zrotation Yrotation Xrotation
									End Site
									{
										OFFSET 0.000000 0.000000 0.000000
									}
								}
							}
						}
					}
				}
				JOINT RightShoulder
				{
					OFFSET 0.000000 0.000000 0.000000
					CHANNELS 3 Zrotation Yrotation Xrotation
					JOINT RightArm
					{
						OFFSET -2.700000 1.550000 -0.730000
						CHANNELS 3 Zrotation Yrotation Xrotation
						JOINT RightForeArm
						{
							OFFSET -5.450000 0.000000 0.000000
							CHANNELS 3 Zrotation Yrotation Xrotation
							JOINT RightHand
							{
								OFFSET -3.450000 0.000000 0.000000
								CHANNELS 3 Zrotation Yrotation Xrotation
								JOINT RightHandIndex1
								{
									OFFSET -0.750000 0.000000 0.000000
									CHANNELS 3 Zrotation Yrotation Xrotation
									End Site
									{
										OFFSET 0.000000 0.000000 0.000000
									}
								}
							}
						}
					}
				}
			}
		}
	}
}
MOTION
Frames: 7
Frame Time: 0.016667
0.032240 16.443630 -0.725870 -0.007550 32.018183 -13.883727 -14.810655 12.642818 2.796790 -3.144517 -1.623849 -3.853798 -1.125174 4.694725 18.712737 -0.490900 4.197313 3.307915 -0.072910 -0.301430 -0.268640 18.499293 -12.688762 2.188761 -13.488234 1.181497 -3.310233 4.546612 -9.413443 32.608933 -0.745275 -6.185434 2.376515 -0.177740 0.374430 0.107650 -5.756874 1.790751 -7.776008 40.168439 -8.034447 17.557586 -39.454690 3.659667 9.717519 18.986207 -5.969028 -16.363555 -14.569196 -6.265553 47.792508 -3.068390 -15.411920 -16.626190 -18.695076 -5.004364 5.199449 -45.386441 6.111124 -14.175279 -45.428610 -65.204388 19.633576 -2.791162 3.448567 0.777140 -0.056270 0.062340 0.208970 -19.973420 19.532425 10.295891 -27.572573 -6.399464 -12.666630 -43.056124 3.435723 -2.009312 3.535965 -1.290614 -0.366570 0.523930 0.320440 -0.022440 
0.034260 16.430360 -0.720610 0.170426 31.944491 -13.935370 -14.806711 12.637212 2.805077 -3.162738 -1.627719 -3.634228 -1.239683 4.700038 18.540045 -0.475645 4.191888 3.299020 -0.066900 -0.294190 -0.269880 18.502614 -12.697406 2.174633 -13.774298 1.134219 -3.115892 4.558382 -9.544689 32.919022 -0.768276 -6.245093 2.345679 -0.184070 0.363580 0.122610 -5.764626 1.786255 -7.769337 40.400231 -7.973528 17.658853 -39.621293 3.674434 9.494018 18.956620 -6.014103 -16.484200 -15.070297 -5.671117 48.765145 -2.711480 -15.397670 -16.522120 -18.274692 -4.821754 5.045632 -45.092279 6.013605 -13.645605 -46.615677 -64.657857 20.369532 -2.824862 3.437909 0.779190 -0.064580 0.076230 0.206240 -20.312910 19.294273 10.526603 -27.584965 -7.298446 -12.473214 -43.518606 2.650791 -1.759849 3.585381 -1.284251 -0.346160 0.507700 0.323000 -0.017230 
0.032200 16.420020 -0.717330 0.020691 31.343176 -14.985775 -14.823798 12.775760 2.823741 -2.352305 -1.526684 -2.886312 -1.883866 4.957450 18.462368 -0.407511 4.302678 3.258424 -0.065900 -0.283180 -0.312210 18.459184 -12.652936 2.184265 -13.892142 1.037807 -2.194370 4.670805 -9.794831 33.633310 -0.808738 -6.398410 2.300761 -0.192430 0.378170 0.134540 -5.658037 1.492146 -7.715692 40.710781 -8.556812 18.938404 -39.076996 3.151896 9.034357 19.082193 -7.357863 -16.510218 -18.201869 -4.058539 49.108171 -1.389560 -15.979860 -16.290530 -18.015175 -4.464931 4.585494 -45.320898 5.794616 -13.151674 -47.156823 -62.585251 19.941759 -2.914711 3.385821 0.758110 -0.070530 0.073960 0.224800 -20.626288 19.519888 10.757173 -28.715312 -8.609125 -12.261360 -45.055930 0.911489 -1.411055 3.638334 -1.290514 -0.315810 0.493810 0.326780 0.016660 
0.032950 16.392150 -0.707390 0.127145 30.652670 -15.376207 -14.826257 12.854480 2.847786 -2.013172 -1.496365 -2.452578 -2.337814 5.116983 18.349579 -0.368997 4.382828 3.251541 -0.081360 -0.303270 -0.344710 18.443428 -12.633763 2.158099 -14.207469 0.917861 -1.959582 4.461059 -9.888150 34.193875 -0.804555 -6.483803 2.285116 -0.200100 0.408950 0.118250 -5.590214 1.303507 -7.651026 41.255758 -9.211168 19.482873 -39.571641 2.555996 8.229693 19.195267 -8.789298 -16.573217 -21.381984 -2.746198 48.357169 -1.110630 -16.396880 -14.925520 -17.796331 -3.378833 4.187776 -45.086970 6.646732 -12.839925 -49.877205 -63.381357 22.067195 -2.916036 3.411051 0.735210 -0.062440 0.043420 0.243040 -20.951264 19.347725 10.761541 -29.539208 -9.898467 -11.934790 -46.408027 0.518119 -1.284184 3.684081 -1.322569 -0.324700 0.499540 0.325550 0.036240 
0.032380 16.369290 -0.698840 0.263206 29.917494 -15.862210 -14.836287 12.966038 2.884306 -1.741579 -1.436018 -1.919723 -2.550996 5.244365 18.346140 -0.325582 4.473475 3.236055 -0.113480 -0.344900 -0.402670 18.415330 -12.600100 2.137519 -14.433263 0.755119 -1.547067 4.190015 -9.873789 34.376482 -0.778469 -6.529065 2.291266 -0.220380 0.452730 0.100640 -5.495617 1.046716 -7.576812 41.395868 -9.943662 20.014783 -39.671473 1.852548 7.535645 19.171216 -10.189768 -16.867899 -24.453292 -1.000695 47.442904 -0.131840 -16.599160 -12.911070 -17.553738 -2.649487 4.169990 -45.630183 8.064346 -13.135725 -52.277247 -64.663508 23.961021 -2.909315 3.464003 0.706180 -0.046290 -0.006340 0.257460 -20.949542 19.597128 10.849872 -30.446913 -10.400381 -11.814312 -48.062328 -0.907865 -1.027776 3.705281 -1.343057 -0.335630 0.493980 0.340890 0.056300 
0.033090 16.361630 -0.683940 0.594249 29.221822 -15.968472 -14.833417 13.010220 2.920810 -1.631225 -1.443873 -1.542745 -3.097839 5.439585 18.452386 -0.278791 4.553003 3.203016 -0.088640 -0.335700 -0.374130 18.409912 -12.592042 2.104631 -14.774199 0.518364 -1.194101 3.812699 -9.721921 33.949344 -0.774763 -6.473442 2.297152 -0.226320 0.431150 0.112100 -5.449837 0.903301 -7.527369 41.439790 -10.318630 19.691778 -40.161572 1.430337 7.207673 19.221043 -10.543104 -17.303271 -25.752587 0.488289 47.909934 -0.343840 -15.915200 -11.653650 -17.445896 -2.442553 4.323588 -45.453079 9.435105 -13.481364 -53.619615 -65.070426 24.817966 -2.843771 3.537451 0.701940 -0.059820 0.001300 0.260670 -21.070941 19.800995 11.138941 -30.219293 -10.317805 -12.072247 -50.125700 -2.585951 -0.755412 3.766995 -1.390115 -0.313020 0.457990 0.318960 0.055670 
0.038630 16.361860 -0.657060 0.631563 29.090213 -15.869735 -14.832669 13.038958 2.925882 -1.544569 -1.486913 -1.455525 -3.061816 5.430210 18.561495 -0.291711 4.594055 3.182554 -0.112030 -0.389420 -0.375340 18.407129 -12.595224 2.095804 -14.788667 0.187150 -0.804643 3.593560 -9.676348 33.318921 -0.772314 -6.402745 2.305380 -0.258440 0.430200 0.123360 -5.441318 0.798380 -7.488124 41.991632 -10.397719 18.673117 -40.959126 1.277020 6.631503 19.040223 -10.345414 -17.885940 -26.176975 1.305593 49.303761 -0.151960 -15.802680 -10.914370 -17.014928 -2.621324 4.801922 -45.136210 11.052206 -13.220057 -57.375781 -65.951092 27.584503 -2.822550 3.568008 0.733900 -0.070910 0.003950 0.242850 -21.100298 20.057321 11.541221 -29.985728 -10.938554 -11.952690 -51.109032 -3.313867 -0.390943 3.800870 -1.364722 -0.323270 0.449090 0.347550 0.041250 
